<svg display="none" xmlns="http://www.w3.org/2000/svg">
     <symbol id="friends"  viewBox="0 0 62 59" fill="none" xmlns="http://www.w3.org/2000/svg">
 
            <g filter="url(#filter0_i)">
            <path fill-rule="evenodd" clip-rule="evenodd" d="M48.3516 28.7103C48.365 28.7146 48.3767 28.7183 48.3866 28.7216C54.7958 30.8538 61.9977 34.8743 62 38.992V40.4899C62 44.9814 54.9534 46.6119 47.0303 47.0474C44.7809 41.2496 36.9223 37.4561 31.8934 35.5701C35.0502 31.8122 38.0685 25.9883 38.0685 19.606C38.0685 13.6284 35.6711 9.18892 32.1871 6.33735C33.8467 2.1724 37.5456 0 41.839 0C47.6703 0 52.4699 3.98037 52.4699 11.5743C52.4699 16.5083 50.3949 21.5299 47.3861 24.6442H47.4004C46.2864 28.0569 47.9728 28.5905 48.3516 28.7103ZM27.3582 33.511C26.1308 37.2665 28.0936 39.2638 28.4064 39.3656C35.2239 41.635 42.8843 45.9088 42.8843 50.2914V51.8864C42.8843 57.6819 31.8546 59 21.5054 59C11.1682 59 0 57.6819 0 51.8864V50.2914C0 46.0389 7.62217 41.7273 14.1173 39.3656C14.5877 39.1904 16.8299 36.8571 15.5763 33.5488C12.3598 30.2358 9.85008 24.8805 9.85008 19.6057C9.85008 11.5314 15.2348 7.29783 21.4433 7.29783C27.6471 7.29783 33.2801 11.5314 33.2801 19.6057C33.2801 24.8616 30.5412 30.1956 27.3414 33.511H27.3582Z" fill="#C66F34"/>
            </g>
            <defs>
            <filter id="filter0_i" x="0" y="0" width="62" height="62.3453" filterUnits="userSpaceOnUse" color-interpolation-filters="sRGB">
            <feFlood flood-opacity="0" result="BackgroundImageFix"/>
            <feBlend mode="normal" in="SourceGraphic" in2="BackgroundImageFix" result="shape"/>
            <feColorMatrix in="SourceAlpha" type="matrix" values="0 0 0 0 0 0 0 0 0 0 0 0 0 0 0 0 0 0 127 0" result="hardAlpha"/>
            <feOffset dy="3.34533"/>
            <feGaussianBlur stdDeviation="1.67266"/>
            <feComposite in2="hardAlpha" operator="arithmetic" k2="-1" k3="1"/>
            <feColorMatrix type="matrix" values="0 0 0 0 0 0 0 0 0 0 0 0 0 0 0 0 0 0 0.25 0"/>
            <feBlend mode="normal" in2="shape" result="effect1_innerShadow"/>
            </filter>
            </defs>
            

  </symbol>
  <symbol id="settings" viewBox="0 0 75 75">
        <g>
            <path d="M60.9267 37.7942L56.9408 34.759C55.7825 33.877 55.2124 32.4533 55.2124 30.9975C55.2124 29.5424 55.7833 28.1175 56.9411 27.2361L60.9321 24.1982C62.0198 23.3612 62.3169 21.8757 61.6245 20.6384L55.5387 10.385C54.8887 9.22771 53.4642 8.6335 52.0184 9.15275L47.2987 10.9978C45.9336 11.5315 44.3898 11.3097 43.115 10.5864C41.8036 9.84227 40.8331 8.60304 40.6133 7.11134L39.916 2.37671C39.7435 1.023 38.5338 0 37.104 0H24.9008C23.4709 0 22.2639 1.023 22.0941 2.356L21.3943 7.11271C21.1744 8.60698 20.2416 9.83103 18.9288 10.5779C17.6599 11.2998 16.0869 11.5386 14.7273 11.007L9.97845 9.15021C8.68107 8.66196 7.12914 9.20954 6.48449 10.3617L0.390933 20.628C-0.327953 21.8112 -0.030873 23.3482 1.08072 24.2059L5.06871 27.2426C6.22597 28.1239 6.795 29.5456 6.795 31.0001C6.795 32.4563 6.22517 33.8794 5.06647 34.7614L1.07537 37.7994C-0.0123443 38.639 -0.306813 40.1244 0.385586 41.3592L6.47131 51.6125C7.1213 52.7672 8.53259 53.3665 9.99163 52.8447L14.711 50.9998C16.0764 50.466 17.6192 50.6863 18.8941 51.41C20.2042 52.1535 21.1742 53.393 21.3938 54.8833L22.0914 59.6182C22.2638 60.977 23.4709 62 24.9034 62H37.1066C38.5365 62 39.7463 60.977 39.916 59.644L40.616 54.8878C40.8358 53.3945 41.766 52.1714 43.0778 51.4249C44.3485 50.7018 45.9244 50.4619 47.286 50.9943L52.0316 52.8498C52.3659 52.9763 52.7134 53.041 53.0716 53.041C54.1008 53.041 55.0479 52.4933 55.5254 51.6408L61.6376 41.3333C62.3169 40.1243 62.0197 38.639 60.9267 37.7942ZM31.0024 41.3333C25.1502 41.3333 20.3909 36.6988 20.3909 31C20.3909 25.3012 25.1502 20.6667 31.0024 20.6667C36.8545 20.6667 41.6138 25.3012 41.6138 31C41.6138 36.6988 36.8545 41.3333 31.0024 41.3333Z" fill="url(#paint0_linear)"/>
            <defs>
                <linearGradient id="paint0_linear" x1="31" y1="0" x2="31" y2="62" gradientUnits="userSpaceOnUse">
                    <stop stop-color="#FCD86F"/>
                    <stop offset="1" stop-color="#EDA439"/>
                </linearGradient>
            </defs>
         </g>
  </symbol>
  <symbol id="player" viewBox="0 0 50 48" fill="none" xmlns="http://www.w3.org/2000/svg">
        <g>
            <g filter="url(#filter0_i)">
                <path d="M50 4.53661C50 2.31262 48.1972 0.509766 45.9732 0.509766H4.02685C1.80285 0.509766 0 2.31262 0 4.53661V43.4628C0 45.6868 1.80285 47.4896 4.02685 47.4896H45.9732C48.1972 47.4896 50 45.6868 50 43.4628V4.53661ZM15.2685 5.54332H22.4832V11.248H15.2685V5.54332ZM10.2349 42.4561H5.03356V36.7514H10.2349V42.4561ZM10.2349 11.248H5.03356V5.54332H10.2349V11.248ZM22.4832 42.4561H15.2685V36.7514H22.4832V42.4561ZM20.6376 28.6487V19.3505C20.6376 17.9663 21.6221 17.4542 22.7802 18.2124L29.5314 22.6205C30.6894 23.3787 30.6988 24.6195 29.5408 25.3779L22.7755 29.7868C21.6175 30.5452 20.6376 30.0329 20.6376 28.6487ZM34.7315 42.4561H27.5168V36.7514H34.7315V42.4561ZM34.7315 11.248H27.5168V5.54332H34.7315V11.248ZM44.9664 42.4561H39.7651V36.7514H44.9664V42.4561ZM44.9664 11.248H39.7651V5.54332H44.9664V11.248Z" fill="#C66F34"/>
                </g>
                <defs>
                <filter id="filter0_i" x="0" y="0.509766" width="50" height="49.6693" filterUnits="userSpaceOnUse" color-interpolation-filters="sRGB">
                <feFlood flood-opacity="0" result="BackgroundImageFix"/>
                <feBlend mode="normal" in="SourceGraphic" in2="BackgroundImageFix" result="shape"/>
                <feColorMatrix in="SourceAlpha" type="matrix" values="0 0 0 0 0 0 0 0 0 0 0 0 0 0 0 0 0 0 127 0" result="hardAlpha"/>
                <feOffset dy="2.68944"/>
                <feGaussianBlur stdDeviation="1.34472"/>
                <feComposite in2="hardAlpha" operator="arithmetic" k2="-1" k3="1"/>
                <feColorMatrix type="matrix" values="0 0 0 0 0 0 0 0 0 0 0 0 0 0 0 0 0 0 0.25 0"/>
                <feBlend mode="normal" in2="shape" result="effect1_innerShadow"/>
                </filter>
            </defs>
        </g>
    </symbol>
    <symbol id="grafic"  viewBox="0 0 56 62" fill="none" xmlns="http://www.w3.org/2000/svg">
        <g>
            <g filter="url(#filter0_i)">
                <path fill-rule="evenodd" clip-rule="evenodd" d="M20.7561 7.02666C20.7561 3.14594 23.9021 0 27.7828 0C31.6635 0 34.8094 3.14594 34.8094 7.02666V54.9732C34.8094 58.8539 31.6635 61.9999 27.7828 61.9999C23.9021 61.9999 20.7561 58.8539 20.7561 54.9732V7.02666ZM0.306641 45.0533C0.306641 41.1726 3.45258 38.0267 7.33329 38.0267C11.214 38.0267 14.3599 41.1726 14.3599 45.0533V54.9734C14.3599 58.8541 11.214 62 7.33329 62C3.45258 62 0.306641 58.8541 0.306641 54.9734V45.0533ZM55.2593 20.2533C55.2593 16.3726 52.1134 13.2267 48.2326 13.2267C44.3519 13.2267 41.206 16.3726 41.206 20.2533V54.9733C41.206 58.854 44.3519 62 48.2326 62C52.1134 62 55.2593 58.854 55.2593 54.9733V20.2533Z" fill="#C66F34"/>
            </g>
            <defs>
                <filter id="filter0_i" x="0.306641" y="0" width="54.9527" height="65.3453" filterUnits="userSpaceOnUse" color-interpolation-filters="sRGB">
                <feFlood flood-opacity="0" result="BackgroundImageFix"/>
                <feBlend mode="normal" in="SourceGraphic" in2="BackgroundImageFix" result="shape"/>
                <feColorMatrix in="SourceAlpha" type="matrix" values="0 0 0 0 0 0 0 0 0 0 0 0 0 0 0 0 0 0 127 0" result="hardAlpha"/>
                <feOffset dy="3.34533"/>
                <feGaussianBlur stdDeviation="1.67266"/>
                <feComposite in2="hardAlpha" operator="arithmetic" k2="-1" k3="1"/>
                <feColorMatrix type="matrix" values="0 0 0 0 0 0 0 0 0 0 0 0 0 0 0 0 0 0 0.25 0"/>
                <feBlend mode="normal" in2="shape" result="effect1_innerShadow"/>
                </filter>
            </defs>
          
        </g>
    </symbol>
</svg>
 
 